<svg width="120" height="20" viewBox="0 0 120 20" fill="none" xmlns="http://www.w3.org/2000/svg">
<path d="M0 20V0H15.5091C18.3052 0 19.5728 1.08527 19.5728 3.87597V8.33333C19.5728 11.124 18.3052 12.2093 15.5091 12.2093H12.6757L20 20H16L8.87301 12.2093H3.20621V20H0ZM14.2416 2.5969H3.20621V9.6124H14.2416C15.6583 9.6124 16.3293 9.26357 16.3293 7.55814V4.65116C16.3293 2.9845 15.6583 2.5969 14.2416 2.5969Z" fill="black"/>
<path d="M34 4.72868C34 1.00775 34.9699 0 38.0468 0H49.9866C53.097 0 54 1.04651 54 4.72868V15.2713C54 18.9535 53.097 20 49.9866 20H38.0468C34.9699 20 34 18.9922 34 15.2713V4.72868ZM36.8762 17.2093H51.1572V2.71318H36.8762V17.2093Z" fill="black"/>
<path d="M68 20V0H70.9208V17.2093H86V20H68Z" fill="black"/>
<path d="M100 4.72868C100 1.00775 100.97 0 104.047 0H115.987C119.097 0 120 1.04651 120 4.72868V15.2713C120 18.9535 119.097 20 115.987 20H104.047C100.97 20 100 18.9922 100 15.2713V4.72868ZM102.876 17.2093H117.157V2.71318H102.876V17.2093Z" fill="black"/>
</svg>
